<?xml version="1.0" encoding="utf-8"?>
<!-- Generator: Adobe Illustrator 17.0.0, SVG Export Plug-In . SVG Version: 6.00 Build 0)  -->
<!DOCTYPE svg PUBLIC "-//W3C//DTD SVG 1.1//EN" "http://www.w3.org/Graphics/SVG/1.1/DTD/svg11.dtd" [
	<!ENTITY ns_flows "http://ns.adobe.com/Flows/1.0/">
	<!ENTITY ns_extend "http://ns.adobe.com/Extensibility/1.0/">
	<!ENTITY ns_ai "http://ns.adobe.com/AdobeIllustrator/10.0/">
	<!ENTITY ns_graphs "http://ns.adobe.com/Graphs/1.0/">
]>
<svg version="1.1" id="Calque_1" xmlns:x="&ns_extend;" xmlns:i="&ns_ai;" xmlns:graph="&ns_graphs;"
	 xmlns="http://www.w3.org/2000/svg" xmlns:xlink="http://www.w3.org/1999/xlink" xmlns:a="http://ns.adobe.com/AdobeSVGViewerExtensions/3.0/"
	 x="0px" y="0px" width="100px" height="100px" viewBox="0 0 100 100" enable-background="new 0 0 100 100" xml:space="preserve">
<g>
	<path fill="#FFFFFF" d="M60.4,50.19L60.4,50.19c-1.87,0-3.38-1.51-3.38-3.38V35.7H26.89c-4.53,0-8.27-3.73-8.27-8.27v-2.04
		c0-4.53,3.73-8.27,8.27-8.27h30.13V5.83c0-1.87,1.51-3.38,3.38-3.38c0.8,0,1.6,0.27,2.22,0.8L86,23.79
		c0.71,0.62,1.16,1.51,1.16,2.49c0,0.98-0.44,1.87-1.16,2.49L62.62,49.39C62,49.92,61.2,50.19,60.4,50.19z M26.89,18.81
		c-3.56,0-6.49,2.93-6.49,6.49v2.04c0,3.56,2.93,6.49,6.49,6.49H58.8v12.98c0,0.98,0.8,1.6,1.6,1.6l0,0c0.36,0,0.71-0.18,0.98-0.36
		l23.38-20.53c0.36-0.27,0.53-0.71,0.53-1.16s-0.18-0.89-0.53-1.16L61.38,4.68c-0.89-0.8-2.58-0.27-2.58,1.16v12.98H26.89z"/>
</g>
</svg>
